<svg xmlns="http://www.w3.org/2000/svg" viewBox="0 0 300 300">
  <defs>
    <filter id="halo" x="-60%" y="-60%" width="220%" height="220%">
      <feGaussianBlur stdDeviation="4.5"/>
    </filter>
  </defs>
  <circle cx="150" cy="150" r="150" fill="#0A0A0B"/>
  <g fill="#FFFFFF" opacity="0.05"><circle cx="114" cy="6" r="3.7"/><circle cx="126" cy="6" r="3.7"/><circle cx="138" cy="6" r="3.7"/><circle cx="150" cy="6" r="3.7"/><circle cx="162" cy="6" r="3.7"/><circle cx="174" cy="6" r="3.7"/><circle cx="186" cy="6" r="3.7"/><circle cx="90" cy="18" r="3.7"/><circle cx="102" cy="18" r="3.7"/><circle cx="114" cy="18" r="3.7"/><circle cx="126" cy="18" r="3.7"/><circle cx="138" cy="18" r="3.7"/><circle cx="150" cy="18" r="3.7"/><circle cx="162" cy="18" r="3.7"/><circle cx="174" cy="18" r="3.7"/><circle cx="186" cy="18" r="3.7"/><circle cx="198" cy="18" r="3.7"/><circle cx="210" cy="18" r="3.7"/><circle cx="66" cy="30" r="3.7"/><circle cx="78" cy="30" r="3.7"/><circle cx="90" cy="30" r="3.7"/><circle cx="102" cy="30" r="3.7"/><circle cx="114" cy="30" r="3.7"/><circle cx="126" cy="30" r="3.7"/><circle cx="138" cy="30" r="3.7"/><circle cx="150" cy="30" r="3.7"/><circle cx="162" cy="30" r="3.7"/><circle cx="174" cy="30" r="3.7"/><circle cx="186" cy="30" r="3.7"/><circle cx="198" cy="30" r="3.7"/><circle cx="210" cy="30" r="3.7"/><circle cx="222" cy="30" r="3.7"/><circle cx="234" cy="30" r="3.7"/><circle cx="54" cy="42" r="3.7"/><circle cx="66" cy="42" r="3.7"/><circle cx="78" cy="42" r="3.7"/><circle cx="90" cy="42" r="3.7"/><circle cx="102" cy="42" r="3.7"/><circle cx="114" cy="42" r="3.7"/><circle cx="126" cy="42" r="3.7"/><circle cx="138" cy="42" r="3.7"/><circle cx="150" cy="42" r="3.7"/><circle cx="162" cy="42" r="3.7"/><circle cx="174" cy="42" r="3.7"/><circle cx="186" cy="42" r="3.7"/><circle cx="198" cy="42" r="3.7"/><circle cx="210" cy="42" r="3.7"/><circle cx="222" cy="42" r="3.7"/><circle cx="234" cy="42" r="3.7"/><circle cx="246" cy="42" r="3.7"/><circle cx="42" cy="54" r="3.7"/><circle cx="54" cy="54" r="3.7"/><circle cx="66" cy="54" r="3.7"/><circle cx="78" cy="54" r="3.7"/><circle cx="90" cy="54" r="3.7"/><circle cx="102" cy="54" r="3.7"/><circle cx="114" cy="54" r="3.7"/><circle cx="126" cy="54" r="3.7"/><circle cx="138" cy="54" r="3.7"/><circle cx="150" cy="54" r="3.7"/><circle cx="162" cy="54" r="3.7"/><circle cx="174" cy="54" r="3.7"/><circle cx="186" cy="54" r="3.7"/><circle cx="198" cy="54" r="3.7"/><circle cx="210" cy="54" r="3.7"/><circle cx="222" cy="54" r="3.7"/><circle cx="234" cy="54" r="3.7"/><circle cx="246" cy="54" r="3.7"/><circle cx="258" cy="54" r="3.7"/><circle cx="30" cy="66" r="3.7"/><circle cx="42" cy="66" r="3.7"/><circle cx="54" cy="66" r="3.7"/><circle cx="66" cy="66" r="3.7"/><circle cx="78" cy="66" r="3.7"/><circle cx="90" cy="66" r="3.7"/><circle cx="102" cy="66" r="3.7"/><circle cx="114" cy="66" r="3.7"/><circle cx="126" cy="66" r="3.7"/><circle cx="138" cy="66" r="3.7"/><circle cx="150" cy="66" r="3.7"/><circle cx="162" cy="66" r="3.7"/><circle cx="174" cy="66" r="3.7"/><circle cx="186" cy="66" r="3.7"/><circle cx="198" cy="66" r="3.7"/><circle cx="210" cy="66" r="3.7"/><circle cx="222" cy="66" r="3.7"/><circle cx="234" cy="66" r="3.7"/><circle cx="246" cy="66" r="3.7"/><circle cx="258" cy="66" r="3.7"/><circle cx="270" cy="66" r="3.7"/><circle cx="30" cy="78" r="3.7"/><circle cx="42" cy="78" r="3.7"/><circle cx="54" cy="78" r="3.7"/><circle cx="66" cy="78" r="3.7"/><circle cx="78" cy="78" r="3.7"/><circle cx="90" cy="78" r="3.7"/><circle cx="102" cy="78" r="3.7"/><circle cx="114" cy="78" r="3.7"/><circle cx="126" cy="78" r="3.7"/><circle cx="138" cy="78" r="3.7"/><circle cx="150" cy="78" r="3.7"/><circle cx="162" cy="78" r="3.7"/><circle cx="174" cy="78" r="3.7"/><circle cx="186" cy="78" r="3.7"/><circle cx="198" cy="78" r="3.7"/><circle cx="210" cy="78" r="3.7"/><circle cx="222" cy="78" r="3.7"/><circle cx="234" cy="78" r="3.7"/><circle cx="246" cy="78" r="3.7"/><circle cx="258" cy="78" r="3.7"/><circle cx="270" cy="78" r="3.7"/><circle cx="18" cy="90" r="3.7"/><circle cx="30" cy="90" r="3.7"/><circle cx="42" cy="90" r="3.7"/><circle cx="54" cy="90" r="3.7"/><circle cx="66" cy="90" r="3.7"/><circle cx="78" cy="90" r="3.7"/><circle cx="90" cy="90" r="3.7"/><circle cx="102" cy="90" r="3.7"/><circle cx="114" cy="90" r="3.7"/><circle cx="126" cy="90" r="3.7"/><circle cx="138" cy="90" r="3.7"/><circle cx="150" cy="90" r="3.7"/><circle cx="162" cy="90" r="3.7"/><circle cx="174" cy="90" r="3.7"/><circle cx="186" cy="90" r="3.7"/><circle cx="198" cy="90" r="3.7"/><circle cx="210" cy="90" r="3.7"/><circle cx="222" cy="90" r="3.7"/><circle cx="234" cy="90" r="3.7"/><circle cx="246" cy="90" r="3.7"/><circle cx="258" cy="90" r="3.7"/><circle cx="270" cy="90" r="3.7"/><circle cx="282" cy="90" r="3.7"/><circle cx="18" cy="102" r="3.7"/><circle cx="30" cy="102" r="3.7"/><circle cx="42" cy="102" r="3.7"/><circle cx="54" cy="102" r="3.7"/><circle cx="66" cy="102" r="3.7"/><circle cx="78" cy="102" r="3.7"/><circle cx="90" cy="102" r="3.7"/><circle cx="102" cy="102" r="3.7"/><circle cx="114" cy="102" r="3.7"/><circle cx="126" cy="102" r="3.7"/><circle cx="138" cy="102" r="3.7"/><circle cx="150" cy="102" r="3.7"/><circle cx="162" cy="102" r="3.7"/><circle cx="174" cy="102" r="3.7"/><circle cx="186" cy="102" r="3.7"/><circle cx="198" cy="102" r="3.7"/><circle cx="210" cy="102" r="3.7"/><circle cx="222" cy="102" r="3.7"/><circle cx="234" cy="102" r="3.7"/><circle cx="246" cy="102" r="3.7"/><circle cx="258" cy="102" r="3.7"/><circle cx="270" cy="102" r="3.7"/><circle cx="282" cy="102" r="3.7"/><circle cx="6" cy="114" r="3.7"/><circle cx="18" cy="114" r="3.7"/><circle cx="30" cy="114" r="3.7"/><circle cx="42" cy="114" r="3.7"/><circle cx="54" cy="114" r="3.7"/><circle cx="66" cy="114" r="3.7"/><circle cx="78" cy="114" r="3.7"/><circle cx="90" cy="114" r="3.7"/><circle cx="102" cy="114" r="3.7"/><circle cx="114" cy="114" r="3.7"/><circle cx="126" cy="114" r="3.7"/><circle cx="138" cy="114" r="3.7"/><circle cx="150" cy="114" r="3.7"/><circle cx="162" cy="114" r="3.7"/><circle cx="174" cy="114" r="3.7"/><circle cx="186" cy="114" r="3.7"/><circle cx="198" cy="114" r="3.7"/><circle cx="210" cy="114" r="3.7"/><circle cx="222" cy="114" r="3.7"/><circle cx="234" cy="114" r="3.7"/><circle cx="246" cy="114" r="3.7"/><circle cx="258" cy="114" r="3.7"/><circle cx="270" cy="114" r="3.7"/><circle cx="282" cy="114" r="3.7"/><circle cx="294" cy="114" r="3.7"/><circle cx="6" cy="126" r="3.7"/><circle cx="18" cy="126" r="3.7"/><circle cx="30" cy="126" r="3.7"/><circle cx="42" cy="126" r="3.7"/><circle cx="54" cy="126" r="3.7"/><circle cx="66" cy="126" r="3.7"/><circle cx="78" cy="126" r="3.7"/><circle cx="90" cy="126" r="3.7"/><circle cx="102" cy="126" r="3.7"/><circle cx="114" cy="126" r="3.7"/><circle cx="126" cy="126" r="3.7"/><circle cx="138" cy="126" r="3.7"/><circle cx="150" cy="126" r="3.7"/><circle cx="162" cy="126" r="3.7"/><circle cx="174" cy="126" r="3.7"/><circle cx="186" cy="126" r="3.7"/><circle cx="198" cy="126" r="3.7"/><circle cx="210" cy="126" r="3.7"/><circle cx="222" cy="126" r="3.7"/><circle cx="234" cy="126" r="3.7"/><circle cx="246" cy="126" r="3.7"/><circle cx="258" cy="126" r="3.7"/><circle cx="270" cy="126" r="3.7"/><circle cx="282" cy="126" r="3.7"/><circle cx="294" cy="126" r="3.7"/><circle cx="6" cy="138" r="3.7"/><circle cx="18" cy="138" r="3.7"/><circle cx="30" cy="138" r="3.7"/><circle cx="42" cy="138" r="3.7"/><circle cx="54" cy="138" r="3.7"/><circle cx="66" cy="138" r="3.7"/><circle cx="78" cy="138" r="3.7"/><circle cx="90" cy="138" r="3.7"/><circle cx="102" cy="138" r="3.7"/><circle cx="114" cy="138" r="3.7"/><circle cx="126" cy="138" r="3.7"/><circle cx="138" cy="138" r="3.7"/><circle cx="150" cy="138" r="3.7"/><circle cx="162" cy="138" r="3.7"/><circle cx="174" cy="138" r="3.7"/><circle cx="186" cy="138" r="3.7"/><circle cx="198" cy="138" r="3.7"/><circle cx="210" cy="138" r="3.7"/><circle cx="222" cy="138" r="3.7"/><circle cx="234" cy="138" r="3.7"/><circle cx="246" cy="138" r="3.7"/><circle cx="258" cy="138" r="3.7"/><circle cx="270" cy="138" r="3.7"/><circle cx="282" cy="138" r="3.7"/><circle cx="294" cy="138" r="3.7"/><circle cx="6" cy="150" r="3.7"/><circle cx="18" cy="150" r="3.7"/><circle cx="30" cy="150" r="3.7"/><circle cx="42" cy="150" r="3.7"/><circle cx="54" cy="150" r="3.7"/><circle cx="66" cy="150" r="3.7"/><circle cx="78" cy="150" r="3.7"/><circle cx="90" cy="150" r="3.7"/><circle cx="102" cy="150" r="3.7"/><circle cx="114" cy="150" r="3.7"/><circle cx="126" cy="150" r="3.7"/><circle cx="138" cy="150" r="3.7"/><circle cx="150" cy="150" r="3.7"/><circle cx="162" cy="150" r="3.7"/><circle cx="174" cy="150" r="3.7"/><circle cx="186" cy="150" r="3.7"/><circle cx="198" cy="150" r="3.7"/><circle cx="210" cy="150" r="3.7"/><circle cx="222" cy="150" r="3.7"/><circle cx="234" cy="150" r="3.7"/><circle cx="246" cy="150" r="3.7"/><circle cx="258" cy="150" r="3.7"/><circle cx="270" cy="150" r="3.7"/><circle cx="282" cy="150" r="3.7"/><circle cx="294" cy="150" r="3.7"/><circle cx="6" cy="162" r="3.7"/><circle cx="18" cy="162" r="3.7"/><circle cx="30" cy="162" r="3.7"/><circle cx="42" cy="162" r="3.7"/><circle cx="54" cy="162" r="3.7"/><circle cx="66" cy="162" r="3.7"/><circle cx="78" cy="162" r="3.7"/><circle cx="90" cy="162" r="3.7"/><circle cx="102" cy="162" r="3.7"/><circle cx="114" cy="162" r="3.7"/><circle cx="126" cy="162" r="3.7"/><circle cx="138" cy="162" r="3.7"/><circle cx="150" cy="162" r="3.7"/><circle cx="162" cy="162" r="3.7"/><circle cx="174" cy="162" r="3.7"/><circle cx="186" cy="162" r="3.7"/><circle cx="198" cy="162" r="3.7"/><circle cx="210" cy="162" r="3.7"/><circle cx="222" cy="162" r="3.7"/><circle cx="234" cy="162" r="3.7"/><circle cx="246" cy="162" r="3.7"/><circle cx="258" cy="162" r="3.7"/><circle cx="270" cy="162" r="3.7"/><circle cx="282" cy="162" r="3.7"/><circle cx="294" cy="162" r="3.7"/><circle cx="6" cy="174" r="3.7"/><circle cx="18" cy="174" r="3.7"/><circle cx="30" cy="174" r="3.7"/><circle cx="42" cy="174" r="3.7"/><circle cx="54" cy="174" r="3.7"/><circle cx="66" cy="174" r="3.7"/><circle cx="78" cy="174" r="3.7"/><circle cx="90" cy="174" r="3.7"/><circle cx="102" cy="174" r="3.7"/><circle cx="114" cy="174" r="3.7"/><circle cx="126" cy="174" r="3.7"/><circle cx="138" cy="174" r="3.7"/><circle cx="150" cy="174" r="3.7"/><circle cx="162" cy="174" r="3.7"/><circle cx="174" cy="174" r="3.7"/><circle cx="186" cy="174" r="3.7"/><circle cx="198" cy="174" r="3.7"/><circle cx="210" cy="174" r="3.7"/><circle cx="222" cy="174" r="3.7"/><circle cx="234" cy="174" r="3.7"/><circle cx="246" cy="174" r="3.7"/><circle cx="258" cy="174" r="3.7"/><circle cx="270" cy="174" r="3.7"/><circle cx="282" cy="174" r="3.7"/><circle cx="294" cy="174" r="3.7"/><circle cx="6" cy="186" r="3.7"/><circle cx="18" cy="186" r="3.7"/><circle cx="30" cy="186" r="3.7"/><circle cx="42" cy="186" r="3.7"/><circle cx="54" cy="186" r="3.7"/><circle cx="66" cy="186" r="3.7"/><circle cx="78" cy="186" r="3.7"/><circle cx="90" cy="186" r="3.7"/><circle cx="102" cy="186" r="3.7"/><circle cx="114" cy="186" r="3.7"/><circle cx="126" cy="186" r="3.7"/><circle cx="138" cy="186" r="3.7"/><circle cx="150" cy="186" r="3.7"/><circle cx="162" cy="186" r="3.7"/><circle cx="174" cy="186" r="3.7"/><circle cx="186" cy="186" r="3.7"/><circle cx="198" cy="186" r="3.7"/><circle cx="210" cy="186" r="3.7"/><circle cx="222" cy="186" r="3.7"/><circle cx="234" cy="186" r="3.7"/><circle cx="246" cy="186" r="3.7"/><circle cx="258" cy="186" r="3.7"/><circle cx="270" cy="186" r="3.7"/><circle cx="282" cy="186" r="3.7"/><circle cx="294" cy="186" r="3.7"/><circle cx="18" cy="198" r="3.7"/><circle cx="30" cy="198" r="3.7"/><circle cx="42" cy="198" r="3.7"/><circle cx="54" cy="198" r="3.7"/><circle cx="66" cy="198" r="3.7"/><circle cx="78" cy="198" r="3.7"/><circle cx="90" cy="198" r="3.7"/><circle cx="102" cy="198" r="3.7"/><circle cx="114" cy="198" r="3.7"/><circle cx="126" cy="198" r="3.7"/><circle cx="138" cy="198" r="3.7"/><circle cx="150" cy="198" r="3.7"/><circle cx="162" cy="198" r="3.7"/><circle cx="174" cy="198" r="3.7"/><circle cx="186" cy="198" r="3.7"/><circle cx="198" cy="198" r="3.7"/><circle cx="210" cy="198" r="3.7"/><circle cx="222" cy="198" r="3.7"/><circle cx="234" cy="198" r="3.7"/><circle cx="246" cy="198" r="3.7"/><circle cx="258" cy="198" r="3.7"/><circle cx="270" cy="198" r="3.7"/><circle cx="282" cy="198" r="3.7"/><circle cx="18" cy="210" r="3.7"/><circle cx="30" cy="210" r="3.7"/><circle cx="42" cy="210" r="3.7"/><circle cx="54" cy="210" r="3.7"/><circle cx="66" cy="210" r="3.7"/><circle cx="78" cy="210" r="3.7"/><circle cx="90" cy="210" r="3.7"/><circle cx="102" cy="210" r="3.7"/><circle cx="114" cy="210" r="3.7"/><circle cx="126" cy="210" r="3.7"/><circle cx="138" cy="210" r="3.7"/><circle cx="150" cy="210" r="3.7"/><circle cx="162" cy="210" r="3.7"/><circle cx="174" cy="210" r="3.7"/><circle cx="186" cy="210" r="3.7"/><circle cx="198" cy="210" r="3.7"/><circle cx="210" cy="210" r="3.7"/><circle cx="222" cy="210" r="3.7"/><circle cx="234" cy="210" r="3.7"/><circle cx="246" cy="210" r="3.7"/><circle cx="258" cy="210" r="3.7"/><circle cx="270" cy="210" r="3.7"/><circle cx="282" cy="210" r="3.7"/><circle cx="30" cy="222" r="3.7"/><circle cx="42" cy="222" r="3.7"/><circle cx="54" cy="222" r="3.7"/><circle cx="66" cy="222" r="3.7"/><circle cx="78" cy="222" r="3.7"/><circle cx="90" cy="222" r="3.7"/><circle cx="102" cy="222" r="3.7"/><circle cx="114" cy="222" r="3.7"/><circle cx="126" cy="222" r="3.7"/><circle cx="138" cy="222" r="3.7"/><circle cx="150" cy="222" r="3.7"/><circle cx="162" cy="222" r="3.7"/><circle cx="174" cy="222" r="3.7"/><circle cx="186" cy="222" r="3.7"/><circle cx="198" cy="222" r="3.7"/><circle cx="210" cy="222" r="3.7"/><circle cx="222" cy="222" r="3.7"/><circle cx="234" cy="222" r="3.7"/><circle cx="246" cy="222" r="3.7"/><circle cx="258" cy="222" r="3.7"/><circle cx="270" cy="222" r="3.7"/><circle cx="30" cy="234" r="3.7"/><circle cx="42" cy="234" r="3.7"/><circle cx="54" cy="234" r="3.7"/><circle cx="66" cy="234" r="3.7"/><circle cx="78" cy="234" r="3.7"/><circle cx="90" cy="234" r="3.7"/><circle cx="102" cy="234" r="3.7"/><circle cx="114" cy="234" r="3.7"/><circle cx="126" cy="234" r="3.7"/><circle cx="138" cy="234" r="3.7"/><circle cx="150" cy="234" r="3.7"/><circle cx="162" cy="234" r="3.7"/><circle cx="174" cy="234" r="3.7"/><circle cx="186" cy="234" r="3.7"/><circle cx="198" cy="234" r="3.7"/><circle cx="210" cy="234" r="3.7"/><circle cx="222" cy="234" r="3.7"/><circle cx="234" cy="234" r="3.7"/><circle cx="246" cy="234" r="3.7"/><circle cx="258" cy="234" r="3.7"/><circle cx="270" cy="234" r="3.7"/><circle cx="42" cy="246" r="3.7"/><circle cx="54" cy="246" r="3.7"/><circle cx="66" cy="246" r="3.7"/><circle cx="78" cy="246" r="3.7"/><circle cx="90" cy="246" r="3.7"/><circle cx="102" cy="246" r="3.7"/><circle cx="114" cy="246" r="3.7"/><circle cx="126" cy="246" r="3.7"/><circle cx="138" cy="246" r="3.7"/><circle cx="150" cy="246" r="3.7"/><circle cx="162" cy="246" r="3.7"/><circle cx="174" cy="246" r="3.7"/><circle cx="186" cy="246" r="3.7"/><circle cx="198" cy="246" r="3.7"/><circle cx="210" cy="246" r="3.7"/><circle cx="222" cy="246" r="3.7"/><circle cx="234" cy="246" r="3.7"/><circle cx="246" cy="246" r="3.7"/><circle cx="258" cy="246" r="3.7"/><circle cx="54" cy="258" r="3.7"/><circle cx="66" cy="258" r="3.7"/><circle cx="78" cy="258" r="3.7"/><circle cx="90" cy="258" r="3.7"/><circle cx="102" cy="258" r="3.7"/><circle cx="114" cy="258" r="3.7"/><circle cx="126" cy="258" r="3.7"/><circle cx="138" cy="258" r="3.7"/><circle cx="150" cy="258" r="3.7"/><circle cx="162" cy="258" r="3.7"/><circle cx="174" cy="258" r="3.7"/><circle cx="186" cy="258" r="3.7"/><circle cx="198" cy="258" r="3.7"/><circle cx="210" cy="258" r="3.7"/><circle cx="222" cy="258" r="3.7"/><circle cx="234" cy="258" r="3.7"/><circle cx="246" cy="258" r="3.7"/><circle cx="66" cy="270" r="3.7"/><circle cx="78" cy="270" r="3.7"/><circle cx="90" cy="270" r="3.7"/><circle cx="102" cy="270" r="3.7"/><circle cx="114" cy="270" r="3.7"/><circle cx="126" cy="270" r="3.7"/><circle cx="138" cy="270" r="3.7"/><circle cx="150" cy="270" r="3.7"/><circle cx="162" cy="270" r="3.7"/><circle cx="174" cy="270" r="3.7"/><circle cx="186" cy="270" r="3.7"/><circle cx="198" cy="270" r="3.7"/><circle cx="210" cy="270" r="3.7"/><circle cx="222" cy="270" r="3.7"/><circle cx="234" cy="270" r="3.7"/><circle cx="90" cy="282" r="3.7"/><circle cx="102" cy="282" r="3.7"/><circle cx="114" cy="282" r="3.7"/><circle cx="126" cy="282" r="3.7"/><circle cx="138" cy="282" r="3.7"/><circle cx="150" cy="282" r="3.7"/><circle cx="162" cy="282" r="3.7"/><circle cx="174" cy="282" r="3.7"/><circle cx="186" cy="282" r="3.7"/><circle cx="198" cy="282" r="3.7"/><circle cx="210" cy="282" r="3.7"/><circle cx="114" cy="294" r="3.7"/><circle cx="126" cy="294" r="3.7"/><circle cx="138" cy="294" r="3.7"/><circle cx="150" cy="294" r="3.7"/><circle cx="162" cy="294" r="3.7"/><circle cx="174" cy="294" r="3.7"/><circle cx="186" cy="294" r="3.7"/></g>
  <g fill="#F8F8F4" opacity="0.5" filter="url(#halo)"><circle cx="138" cy="30" r="3.7"/><circle cx="150" cy="30" r="3.7"/><circle cx="162" cy="30" r="3.7"/><circle cx="138" cy="42" r="3.7"/><circle cx="150" cy="42" r="3.7"/><circle cx="162" cy="42" r="3.7"/><circle cx="138" cy="54" r="3.7"/><circle cx="150" cy="54" r="3.7"/><circle cx="162" cy="54" r="3.7"/><circle cx="102" cy="66" r="3.7"/><circle cx="114" cy="66" r="3.7"/><circle cx="126" cy="66" r="3.7"/><circle cx="102" cy="78" r="3.7"/><circle cx="114" cy="78" r="3.7"/><circle cx="126" cy="78" r="3.7"/><circle cx="102" cy="90" r="3.7"/><circle cx="114" cy="90" r="3.7"/><circle cx="126" cy="90" r="3.7"/><circle cx="174" cy="66" r="3.7"/><circle cx="186" cy="66" r="3.7"/><circle cx="198" cy="66" r="3.7"/><circle cx="174" cy="78" r="3.7"/><circle cx="186" cy="78" r="3.7"/><circle cx="198" cy="78" r="3.7"/><circle cx="174" cy="90" r="3.7"/><circle cx="186" cy="90" r="3.7"/><circle cx="198" cy="90" r="3.7"/><circle cx="66" cy="102" r="3.7"/><circle cx="78" cy="102" r="3.7"/><circle cx="90" cy="102" r="3.7"/><circle cx="66" cy="114" r="3.7"/><circle cx="78" cy="114" r="3.7"/><circle cx="90" cy="114" r="3.7"/><circle cx="66" cy="126" r="3.7"/><circle cx="78" cy="126" r="3.7"/><circle cx="90" cy="126" r="3.7"/><circle cx="210" cy="102" r="3.7"/><circle cx="222" cy="102" r="3.7"/><circle cx="234" cy="102" r="3.7"/><circle cx="210" cy="114" r="3.7"/><circle cx="222" cy="114" r="3.7"/><circle cx="234" cy="114" r="3.7"/><circle cx="210" cy="126" r="3.7"/><circle cx="222" cy="126" r="3.7"/><circle cx="234" cy="126" r="3.7"/></g>
  <g fill="#F8F8F4" opacity="0.9" filter="url(#halo)"><circle cx="66" cy="138" r="3.7"/><circle cx="78" cy="138" r="3.7"/><circle cx="90" cy="138" r="3.7"/><circle cx="66" cy="150" r="3.7"/><circle cx="78" cy="150" r="3.7"/><circle cx="90" cy="150" r="3.7"/><circle cx="66" cy="162" r="3.7"/><circle cx="78" cy="162" r="3.7"/><circle cx="90" cy="162" r="3.7"/><circle cx="210" cy="138" r="3.7"/><circle cx="222" cy="138" r="3.7"/><circle cx="234" cy="138" r="3.7"/><circle cx="210" cy="150" r="3.7"/><circle cx="222" cy="150" r="3.7"/><circle cx="234" cy="150" r="3.7"/><circle cx="210" cy="162" r="3.7"/><circle cx="222" cy="162" r="3.7"/><circle cx="234" cy="162" r="3.7"/><circle cx="30" cy="174" r="3.7"/><circle cx="42" cy="174" r="3.7"/><circle cx="54" cy="174" r="3.7"/><circle cx="30" cy="186" r="3.7"/><circle cx="42" cy="186" r="3.7"/><circle cx="54" cy="186" r="3.7"/><circle cx="30" cy="198" r="3.7"/><circle cx="42" cy="198" r="3.7"/><circle cx="54" cy="198" r="3.7"/><circle cx="66" cy="174" r="3.7"/><circle cx="78" cy="174" r="3.7"/><circle cx="90" cy="174" r="3.7"/><circle cx="66" cy="186" r="3.7"/><circle cx="78" cy="186" r="3.7"/><circle cx="90" cy="186" r="3.7"/><circle cx="66" cy="198" r="3.7"/><circle cx="78" cy="198" r="3.7"/><circle cx="90" cy="198" r="3.7"/><circle cx="102" cy="174" r="3.7"/><circle cx="114" cy="174" r="3.7"/><circle cx="126" cy="174" r="3.7"/><circle cx="102" cy="186" r="3.7"/><circle cx="114" cy="186" r="3.7"/><circle cx="126" cy="186" r="3.7"/><circle cx="102" cy="198" r="3.7"/><circle cx="114" cy="198" r="3.7"/><circle cx="126" cy="198" r="3.7"/><circle cx="174" cy="174" r="3.7"/><circle cx="186" cy="174" r="3.7"/><circle cx="198" cy="174" r="3.7"/><circle cx="174" cy="186" r="3.7"/><circle cx="186" cy="186" r="3.7"/><circle cx="198" cy="186" r="3.7"/><circle cx="174" cy="198" r="3.7"/><circle cx="186" cy="198" r="3.7"/><circle cx="198" cy="198" r="3.7"/><circle cx="210" cy="174" r="3.7"/><circle cx="222" cy="174" r="3.7"/><circle cx="234" cy="174" r="3.7"/><circle cx="210" cy="186" r="3.7"/><circle cx="222" cy="186" r="3.7"/><circle cx="234" cy="186" r="3.7"/><circle cx="210" cy="198" r="3.7"/><circle cx="222" cy="198" r="3.7"/><circle cx="234" cy="198" r="3.7"/><circle cx="246" cy="174" r="3.7"/><circle cx="258" cy="174" r="3.7"/><circle cx="270" cy="174" r="3.7"/><circle cx="246" cy="186" r="3.7"/><circle cx="258" cy="186" r="3.7"/><circle cx="270" cy="186" r="3.7"/><circle cx="246" cy="198" r="3.7"/><circle cx="258" cy="198" r="3.7"/><circle cx="270" cy="198" r="3.7"/><circle cx="30" cy="210" r="3.7"/><circle cx="42" cy="210" r="3.7"/><circle cx="54" cy="210" r="3.7"/><circle cx="30" cy="222" r="3.7"/><circle cx="42" cy="222" r="3.7"/><circle cx="54" cy="222" r="3.7"/><circle cx="30" cy="234" r="3.7"/><circle cx="42" cy="234" r="3.7"/><circle cx="54" cy="234" r="3.7"/><circle cx="66" cy="210" r="3.7"/><circle cx="78" cy="210" r="3.7"/><circle cx="90" cy="210" r="3.7"/><circle cx="66" cy="222" r="3.7"/><circle cx="78" cy="222" r="3.7"/><circle cx="90" cy="222" r="3.7"/><circle cx="66" cy="234" r="3.7"/><circle cx="78" cy="234" r="3.7"/><circle cx="90" cy="234" r="3.7"/><circle cx="102" cy="210" r="3.7"/><circle cx="114" cy="210" r="3.7"/><circle cx="126" cy="210" r="3.7"/><circle cx="102" cy="222" r="3.7"/><circle cx="114" cy="222" r="3.7"/><circle cx="126" cy="222" r="3.7"/><circle cx="102" cy="234" r="3.7"/><circle cx="114" cy="234" r="3.7"/><circle cx="126" cy="234" r="3.7"/><circle cx="174" cy="210" r="3.7"/><circle cx="186" cy="210" r="3.7"/><circle cx="198" cy="210" r="3.7"/><circle cx="174" cy="222" r="3.7"/><circle cx="186" cy="222" r="3.7"/><circle cx="198" cy="222" r="3.7"/><circle cx="174" cy="234" r="3.7"/><circle cx="186" cy="234" r="3.7"/><circle cx="198" cy="234" r="3.7"/><circle cx="210" cy="210" r="3.7"/><circle cx="222" cy="210" r="3.7"/><circle cx="234" cy="210" r="3.7"/><circle cx="210" cy="222" r="3.7"/><circle cx="222" cy="222" r="3.7"/><circle cx="234" cy="222" r="3.7"/><circle cx="210" cy="234" r="3.7"/><circle cx="222" cy="234" r="3.7"/><circle cx="234" cy="234" r="3.7"/><circle cx="246" cy="210" r="3.7"/><circle cx="258" cy="210" r="3.7"/><circle cx="270" cy="210" r="3.7"/><circle cx="246" cy="222" r="3.7"/><circle cx="258" cy="222" r="3.7"/><circle cx="270" cy="222" r="3.7"/><circle cx="246" cy="234" r="3.7"/><circle cx="258" cy="234" r="3.7"/><circle cx="270" cy="234" r="3.7"/><circle cx="66" cy="246" r="3.7"/><circle cx="78" cy="246" r="3.7"/><circle cx="90" cy="246" r="3.7"/><circle cx="66" cy="258" r="3.7"/><circle cx="78" cy="258" r="3.7"/><circle cx="90" cy="258" r="3.7"/><circle cx="66" cy="270" r="3.7"/><circle cx="78" cy="270" r="3.7"/><circle cx="90" cy="270" r="3.7"/><circle cx="210" cy="246" r="3.7"/><circle cx="222" cy="246" r="3.7"/><circle cx="234" cy="246" r="3.7"/><circle cx="210" cy="258" r="3.7"/><circle cx="222" cy="258" r="3.7"/><circle cx="234" cy="258" r="3.7"/><circle cx="210" cy="270" r="3.7"/><circle cx="222" cy="270" r="3.7"/><circle cx="234" cy="270" r="3.7"/></g>
  <g fill="#F8F8F4" opacity="0.45"><circle cx="138" cy="30" r="3.7"/><circle cx="150" cy="30" r="3.7"/><circle cx="162" cy="30" r="3.7"/><circle cx="138" cy="42" r="3.7"/><circle cx="150" cy="42" r="3.7"/><circle cx="162" cy="42" r="3.7"/><circle cx="138" cy="54" r="3.7"/><circle cx="150" cy="54" r="3.7"/><circle cx="162" cy="54" r="3.7"/><circle cx="102" cy="66" r="3.7"/><circle cx="114" cy="66" r="3.7"/><circle cx="126" cy="66" r="3.7"/><circle cx="102" cy="78" r="3.7"/><circle cx="114" cy="78" r="3.7"/><circle cx="126" cy="78" r="3.7"/><circle cx="102" cy="90" r="3.7"/><circle cx="114" cy="90" r="3.7"/><circle cx="126" cy="90" r="3.7"/><circle cx="174" cy="66" r="3.7"/><circle cx="186" cy="66" r="3.7"/><circle cx="198" cy="66" r="3.7"/><circle cx="174" cy="78" r="3.7"/><circle cx="186" cy="78" r="3.7"/><circle cx="198" cy="78" r="3.7"/><circle cx="174" cy="90" r="3.7"/><circle cx="186" cy="90" r="3.7"/><circle cx="198" cy="90" r="3.7"/><circle cx="66" cy="102" r="3.7"/><circle cx="78" cy="102" r="3.7"/><circle cx="90" cy="102" r="3.7"/><circle cx="66" cy="114" r="3.7"/><circle cx="78" cy="114" r="3.7"/><circle cx="90" cy="114" r="3.7"/><circle cx="66" cy="126" r="3.7"/><circle cx="78" cy="126" r="3.7"/><circle cx="90" cy="126" r="3.7"/><circle cx="210" cy="102" r="3.7"/><circle cx="222" cy="102" r="3.7"/><circle cx="234" cy="102" r="3.7"/><circle cx="210" cy="114" r="3.7"/><circle cx="222" cy="114" r="3.7"/><circle cx="234" cy="114" r="3.7"/><circle cx="210" cy="126" r="3.7"/><circle cx="222" cy="126" r="3.7"/><circle cx="234" cy="126" r="3.7"/></g>
  <g fill="#F8F8F4"><circle cx="66" cy="138" r="3.7"/><circle cx="78" cy="138" r="3.7"/><circle cx="90" cy="138" r="3.7"/><circle cx="66" cy="150" r="3.7"/><circle cx="78" cy="150" r="3.7"/><circle cx="90" cy="150" r="3.7"/><circle cx="66" cy="162" r="3.7"/><circle cx="78" cy="162" r="3.7"/><circle cx="90" cy="162" r="3.7"/><circle cx="210" cy="138" r="3.7"/><circle cx="222" cy="138" r="3.7"/><circle cx="234" cy="138" r="3.7"/><circle cx="210" cy="150" r="3.7"/><circle cx="222" cy="150" r="3.7"/><circle cx="234" cy="150" r="3.7"/><circle cx="210" cy="162" r="3.7"/><circle cx="222" cy="162" r="3.7"/><circle cx="234" cy="162" r="3.7"/><circle cx="30" cy="174" r="3.7"/><circle cx="42" cy="174" r="3.7"/><circle cx="54" cy="174" r="3.7"/><circle cx="30" cy="186" r="3.7"/><circle cx="42" cy="186" r="3.7"/><circle cx="54" cy="186" r="3.7"/><circle cx="30" cy="198" r="3.7"/><circle cx="42" cy="198" r="3.7"/><circle cx="54" cy="198" r="3.7"/><circle cx="66" cy="174" r="3.7"/><circle cx="78" cy="174" r="3.7"/><circle cx="90" cy="174" r="3.7"/><circle cx="66" cy="186" r="3.7"/><circle cx="78" cy="186" r="3.7"/><circle cx="90" cy="186" r="3.7"/><circle cx="66" cy="198" r="3.7"/><circle cx="78" cy="198" r="3.7"/><circle cx="90" cy="198" r="3.7"/><circle cx="102" cy="174" r="3.7"/><circle cx="114" cy="174" r="3.7"/><circle cx="126" cy="174" r="3.7"/><circle cx="102" cy="186" r="3.7"/><circle cx="114" cy="186" r="3.7"/><circle cx="126" cy="186" r="3.7"/><circle cx="102" cy="198" r="3.7"/><circle cx="114" cy="198" r="3.7"/><circle cx="126" cy="198" r="3.7"/><circle cx="174" cy="174" r="3.7"/><circle cx="186" cy="174" r="3.7"/><circle cx="198" cy="174" r="3.7"/><circle cx="174" cy="186" r="3.7"/><circle cx="186" cy="186" r="3.7"/><circle cx="198" cy="186" r="3.7"/><circle cx="174" cy="198" r="3.7"/><circle cx="186" cy="198" r="3.7"/><circle cx="198" cy="198" r="3.7"/><circle cx="210" cy="174" r="3.7"/><circle cx="222" cy="174" r="3.7"/><circle cx="234" cy="174" r="3.7"/><circle cx="210" cy="186" r="3.7"/><circle cx="222" cy="186" r="3.7"/><circle cx="234" cy="186" r="3.7"/><circle cx="210" cy="198" r="3.7"/><circle cx="222" cy="198" r="3.7"/><circle cx="234" cy="198" r="3.7"/><circle cx="246" cy="174" r="3.7"/><circle cx="258" cy="174" r="3.7"/><circle cx="270" cy="174" r="3.7"/><circle cx="246" cy="186" r="3.7"/><circle cx="258" cy="186" r="3.7"/><circle cx="270" cy="186" r="3.7"/><circle cx="246" cy="198" r="3.7"/><circle cx="258" cy="198" r="3.7"/><circle cx="270" cy="198" r="3.7"/><circle cx="30" cy="210" r="3.7"/><circle cx="42" cy="210" r="3.7"/><circle cx="54" cy="210" r="3.7"/><circle cx="30" cy="222" r="3.7"/><circle cx="42" cy="222" r="3.7"/><circle cx="54" cy="222" r="3.7"/><circle cx="30" cy="234" r="3.7"/><circle cx="42" cy="234" r="3.7"/><circle cx="54" cy="234" r="3.7"/><circle cx="66" cy="210" r="3.7"/><circle cx="78" cy="210" r="3.7"/><circle cx="90" cy="210" r="3.7"/><circle cx="66" cy="222" r="3.7"/><circle cx="78" cy="222" r="3.7"/><circle cx="90" cy="222" r="3.7"/><circle cx="66" cy="234" r="3.7"/><circle cx="78" cy="234" r="3.7"/><circle cx="90" cy="234" r="3.7"/><circle cx="102" cy="210" r="3.7"/><circle cx="114" cy="210" r="3.7"/><circle cx="126" cy="210" r="3.7"/><circle cx="102" cy="222" r="3.7"/><circle cx="114" cy="222" r="3.7"/><circle cx="126" cy="222" r="3.7"/><circle cx="102" cy="234" r="3.7"/><circle cx="114" cy="234" r="3.7"/><circle cx="126" cy="234" r="3.7"/><circle cx="174" cy="210" r="3.7"/><circle cx="186" cy="210" r="3.7"/><circle cx="198" cy="210" r="3.7"/><circle cx="174" cy="222" r="3.7"/><circle cx="186" cy="222" r="3.7"/><circle cx="198" cy="222" r="3.7"/><circle cx="174" cy="234" r="3.7"/><circle cx="186" cy="234" r="3.7"/><circle cx="198" cy="234" r="3.7"/><circle cx="210" cy="210" r="3.7"/><circle cx="222" cy="210" r="3.7"/><circle cx="234" cy="210" r="3.7"/><circle cx="210" cy="222" r="3.7"/><circle cx="222" cy="222" r="3.7"/><circle cx="234" cy="222" r="3.7"/><circle cx="210" cy="234" r="3.7"/><circle cx="222" cy="234" r="3.7"/><circle cx="234" cy="234" r="3.7"/><circle cx="246" cy="210" r="3.7"/><circle cx="258" cy="210" r="3.7"/><circle cx="270" cy="210" r="3.7"/><circle cx="246" cy="222" r="3.7"/><circle cx="258" cy="222" r="3.7"/><circle cx="270" cy="222" r="3.7"/><circle cx="246" cy="234" r="3.7"/><circle cx="258" cy="234" r="3.7"/><circle cx="270" cy="234" r="3.7"/><circle cx="66" cy="246" r="3.7"/><circle cx="78" cy="246" r="3.7"/><circle cx="90" cy="246" r="3.7"/><circle cx="66" cy="258" r="3.7"/><circle cx="78" cy="258" r="3.7"/><circle cx="90" cy="258" r="3.7"/><circle cx="66" cy="270" r="3.7"/><circle cx="78" cy="270" r="3.7"/><circle cx="90" cy="270" r="3.7"/><circle cx="210" cy="246" r="3.7"/><circle cx="222" cy="246" r="3.7"/><circle cx="234" cy="246" r="3.7"/><circle cx="210" cy="258" r="3.7"/><circle cx="222" cy="258" r="3.7"/><circle cx="234" cy="258" r="3.7"/><circle cx="210" cy="270" r="3.7"/><circle cx="222" cy="270" r="3.7"/><circle cx="234" cy="270" r="3.7"/></g>
</svg>
