<svg xmlns="http://www.w3.org/2000/svg" viewBox="0 0 512 512" width="512" height="512">
  <defs>
    <filter id="glow" x="-40%" y="-40%" width="180%" height="180%">
      <feGaussianBlur stdDeviation="5"/>
    </filter>
    <radialGradient id="plate" cx="42%" cy="36%" r="75%">
      <stop offset="0%" stop-color="#121215"/>
      <stop offset="100%" stop-color="#0A0A0C"/>
    </radialGradient>
    <linearGradient id="bg" x1="0" y1="0" x2="1" y2="1">
      <stop offset="0%" stop-color="#1D1D21"/>
      <stop offset="100%" stop-color="#131316"/>
    </linearGradient>
  </defs>

  <!-- fond de l'icone (adaptive icon) -->
  <rect width="512" height="512" rx="112" fill="url(#bg)"/>
  <rect x="6" y="6" width="500" height="500" rx="108" fill="none" stroke="#2A2A2F" stroke-width="1.5"/>

  <!-- plaque circulaire de la Glyph Matrix -->
  <circle cx="256" cy="256" r="232.0" fill="url(#plate)" stroke="#26262B" stroke-width="2"/>

  <!-- LEDs eteintes -->
  <g fill="#FFFFFF" fill-opacity="0.05">
    <rect x="196.5" y="35.2" width="11.5" height="11.5" rx="1.5"/><rect x="214.4" y="35.2" width="11.5" height="11.5" rx="1.5"/><rect x="232.3" y="35.2" width="11.5" height="11.5" rx="1.5"/><rect x="250.3" y="35.2" width="11.5" height="11.5" rx="1.5"/><rect x="268.2" y="35.2" width="11.5" height="11.5" rx="1.5"/><rect x="286.1" y="35.2" width="11.5" height="11.5" rx="1.5"/><rect x="304.0" y="35.2" width="11.5" height="11.5" rx="1.5"/><rect x="160.7" y="53.1" width="11.5" height="11.5" rx="1.5"/><rect x="178.6" y="53.1" width="11.5" height="11.5" rx="1.5"/><rect x="196.5" y="53.1" width="11.5" height="11.5" rx="1.5"/><rect x="214.4" y="53.1" width="11.5" height="11.5" rx="1.5"/><rect x="232.3" y="53.1" width="11.5" height="11.5" rx="1.5"/><rect x="250.3" y="53.1" width="11.5" height="11.5" rx="1.5"/><rect x="268.2" y="53.1" width="11.5" height="11.5" rx="1.5"/><rect x="286.1" y="53.1" width="11.5" height="11.5" rx="1.5"/><rect x="304.0" y="53.1" width="11.5" height="11.5" rx="1.5"/><rect x="321.9" y="53.1" width="11.5" height="11.5" rx="1.5"/><rect x="339.9" y="53.1" width="11.5" height="11.5" rx="1.5"/><rect x="124.8" y="71.1" width="11.5" height="11.5" rx="1.5"/><rect x="142.7" y="71.1" width="11.5" height="11.5" rx="1.5"/><rect x="160.7" y="71.1" width="11.5" height="11.5" rx="1.5"/><rect x="178.6" y="71.1" width="11.5" height="11.5" rx="1.5"/><rect x="196.5" y="71.1" width="11.5" height="11.5" rx="1.5"/><rect x="214.4" y="71.1" width="11.5" height="11.5" rx="1.5"/><rect x="232.3" y="71.1" width="11.5" height="11.5" rx="1.5"/><rect x="250.3" y="71.1" width="11.5" height="11.5" rx="1.5"/><rect x="268.2" y="71.1" width="11.5" height="11.5" rx="1.5"/><rect x="286.1" y="71.1" width="11.5" height="11.5" rx="1.5"/><rect x="304.0" y="71.1" width="11.5" height="11.5" rx="1.5"/><rect x="321.9" y="71.1" width="11.5" height="11.5" rx="1.5"/><rect x="339.9" y="71.1" width="11.5" height="11.5" rx="1.5"/><rect x="357.8" y="71.1" width="11.5" height="11.5" rx="1.5"/><rect x="375.7" y="71.1" width="11.5" height="11.5" rx="1.5"/><rect x="106.9" y="89.0" width="11.5" height="11.5" rx="1.5"/><rect x="124.8" y="89.0" width="11.5" height="11.5" rx="1.5"/><rect x="142.7" y="89.0" width="11.5" height="11.5" rx="1.5"/><rect x="160.7" y="89.0" width="11.5" height="11.5" rx="1.5"/><rect x="178.6" y="89.0" width="11.5" height="11.5" rx="1.5"/><rect x="196.5" y="89.0" width="11.5" height="11.5" rx="1.5"/><rect x="214.4" y="89.0" width="11.5" height="11.5" rx="1.5"/><rect x="232.3" y="89.0" width="11.5" height="11.5" rx="1.5"/><rect x="321.9" y="89.0" width="11.5" height="11.5" rx="1.5"/><rect x="339.9" y="89.0" width="11.5" height="11.5" rx="1.5"/><rect x="357.8" y="89.0" width="11.5" height="11.5" rx="1.5"/><rect x="375.7" y="89.0" width="11.5" height="11.5" rx="1.5"/><rect x="393.6" y="89.0" width="11.5" height="11.5" rx="1.5"/><rect x="89.0" y="106.9" width="11.5" height="11.5" rx="1.5"/><rect x="106.9" y="106.9" width="11.5" height="11.5" rx="1.5"/><rect x="124.8" y="106.9" width="11.5" height="11.5" rx="1.5"/><rect x="142.7" y="106.9" width="11.5" height="11.5" rx="1.5"/><rect x="160.7" y="106.9" width="11.5" height="11.5" rx="1.5"/><rect x="178.6" y="106.9" width="11.5" height="11.5" rx="1.5"/><rect x="196.5" y="106.9" width="11.5" height="11.5" rx="1.5"/><rect x="214.4" y="106.9" width="11.5" height="11.5" rx="1.5"/><rect x="232.3" y="106.9" width="11.5" height="11.5" rx="1.5"/><rect x="339.9" y="106.9" width="11.5" height="11.5" rx="1.5"/><rect x="357.8" y="106.9" width="11.5" height="11.5" rx="1.5"/><rect x="375.7" y="106.9" width="11.5" height="11.5" rx="1.5"/><rect x="393.6" y="106.9" width="11.5" height="11.5" rx="1.5"/><rect x="411.5" y="106.9" width="11.5" height="11.5" rx="1.5"/><rect x="71.1" y="124.8" width="11.5" height="11.5" rx="1.5"/><rect x="89.0" y="124.8" width="11.5" height="11.5" rx="1.5"/><rect x="106.9" y="124.8" width="11.5" height="11.5" rx="1.5"/><rect x="124.8" y="124.8" width="11.5" height="11.5" rx="1.5"/><rect x="142.7" y="124.8" width="11.5" height="11.5" rx="1.5"/><rect x="160.7" y="124.8" width="11.5" height="11.5" rx="1.5"/><rect x="178.6" y="124.8" width="11.5" height="11.5" rx="1.5"/><rect x="196.5" y="124.8" width="11.5" height="11.5" rx="1.5"/><rect x="214.4" y="124.8" width="11.5" height="11.5" rx="1.5"/><rect x="304.0" y="124.8" width="11.5" height="11.5" rx="1.5"/><rect x="321.9" y="124.8" width="11.5" height="11.5" rx="1.5"/><rect x="339.9" y="124.8" width="11.5" height="11.5" rx="1.5"/><rect x="357.8" y="124.8" width="11.5" height="11.5" rx="1.5"/><rect x="375.7" y="124.8" width="11.5" height="11.5" rx="1.5"/><rect x="393.6" y="124.8" width="11.5" height="11.5" rx="1.5"/><rect x="411.5" y="124.8" width="11.5" height="11.5" rx="1.5"/><rect x="429.4" y="124.8" width="11.5" height="11.5" rx="1.5"/><rect x="71.1" y="142.7" width="11.5" height="11.5" rx="1.5"/><rect x="89.0" y="142.7" width="11.5" height="11.5" rx="1.5"/><rect x="106.9" y="142.7" width="11.5" height="11.5" rx="1.5"/><rect x="124.8" y="142.7" width="11.5" height="11.5" rx="1.5"/><rect x="142.7" y="142.7" width="11.5" height="11.5" rx="1.5"/><rect x="160.7" y="142.7" width="11.5" height="11.5" rx="1.5"/><rect x="178.6" y="142.7" width="11.5" height="11.5" rx="1.5"/><rect x="196.5" y="142.7" width="11.5" height="11.5" rx="1.5"/><rect x="214.4" y="142.7" width="11.5" height="11.5" rx="1.5"/><rect x="250.3" y="142.7" width="11.5" height="11.5" rx="1.5"/><rect x="268.2" y="142.7" width="11.5" height="11.5" rx="1.5"/><rect x="304.0" y="142.7" width="11.5" height="11.5" rx="1.5"/><rect x="321.9" y="142.7" width="11.5" height="11.5" rx="1.5"/><rect x="339.9" y="142.7" width="11.5" height="11.5" rx="1.5"/><rect x="357.8" y="142.7" width="11.5" height="11.5" rx="1.5"/><rect x="375.7" y="142.7" width="11.5" height="11.5" rx="1.5"/><rect x="393.6" y="142.7" width="11.5" height="11.5" rx="1.5"/><rect x="411.5" y="142.7" width="11.5" height="11.5" rx="1.5"/><rect x="429.4" y="142.7" width="11.5" height="11.5" rx="1.5"/><rect x="53.1" y="160.7" width="11.5" height="11.5" rx="1.5"/><rect x="71.1" y="160.7" width="11.5" height="11.5" rx="1.5"/><rect x="89.0" y="160.7" width="11.5" height="11.5" rx="1.5"/><rect x="106.9" y="160.7" width="11.5" height="11.5" rx="1.5"/><rect x="124.8" y="160.7" width="11.5" height="11.5" rx="1.5"/><rect x="142.7" y="160.7" width="11.5" height="11.5" rx="1.5"/><rect x="160.7" y="160.7" width="11.5" height="11.5" rx="1.5"/><rect x="178.6" y="160.7" width="11.5" height="11.5" rx="1.5"/><rect x="196.5" y="160.7" width="11.5" height="11.5" rx="1.5"/><rect x="250.3" y="160.7" width="11.5" height="11.5" rx="1.5"/><rect x="268.2" y="160.7" width="11.5" height="11.5" rx="1.5"/><rect x="321.9" y="160.7" width="11.5" height="11.5" rx="1.5"/><rect x="339.9" y="160.7" width="11.5" height="11.5" rx="1.5"/><rect x="357.8" y="160.7" width="11.5" height="11.5" rx="1.5"/><rect x="375.7" y="160.7" width="11.5" height="11.5" rx="1.5"/><rect x="393.6" y="160.7" width="11.5" height="11.5" rx="1.5"/><rect x="411.5" y="160.7" width="11.5" height="11.5" rx="1.5"/><rect x="429.4" y="160.7" width="11.5" height="11.5" rx="1.5"/><rect x="447.4" y="160.7" width="11.5" height="11.5" rx="1.5"/><rect x="53.1" y="178.6" width="11.5" height="11.5" rx="1.5"/><rect x="71.1" y="178.6" width="11.5" height="11.5" rx="1.5"/><rect x="89.0" y="178.6" width="11.5" height="11.5" rx="1.5"/><rect x="106.9" y="178.6" width="11.5" height="11.5" rx="1.5"/><rect x="124.8" y="178.6" width="11.5" height="11.5" rx="1.5"/><rect x="142.7" y="178.6" width="11.5" height="11.5" rx="1.5"/><rect x="160.7" y="178.6" width="11.5" height="11.5" rx="1.5"/><rect x="178.6" y="178.6" width="11.5" height="11.5" rx="1.5"/><rect x="196.5" y="178.6" width="11.5" height="11.5" rx="1.5"/><rect x="232.3" y="178.6" width="11.5" height="11.5" rx="1.5"/><rect x="250.3" y="178.6" width="11.5" height="11.5" rx="1.5"/><rect x="268.2" y="178.6" width="11.5" height="11.5" rx="1.5"/><rect x="286.1" y="178.6" width="11.5" height="11.5" rx="1.5"/><rect x="321.9" y="178.6" width="11.5" height="11.5" rx="1.5"/><rect x="339.9" y="178.6" width="11.5" height="11.5" rx="1.5"/><rect x="357.8" y="178.6" width="11.5" height="11.5" rx="1.5"/><rect x="375.7" y="178.6" width="11.5" height="11.5" rx="1.5"/><rect x="393.6" y="178.6" width="11.5" height="11.5" rx="1.5"/><rect x="411.5" y="178.6" width="11.5" height="11.5" rx="1.5"/><rect x="429.4" y="178.6" width="11.5" height="11.5" rx="1.5"/><rect x="447.4" y="178.6" width="11.5" height="11.5" rx="1.5"/><rect x="35.2" y="196.5" width="11.5" height="11.5" rx="1.5"/><rect x="53.1" y="196.5" width="11.5" height="11.5" rx="1.5"/><rect x="71.1" y="196.5" width="11.5" height="11.5" rx="1.5"/><rect x="89.0" y="196.5" width="11.5" height="11.5" rx="1.5"/><rect x="106.9" y="196.5" width="11.5" height="11.5" rx="1.5"/><rect x="124.8" y="196.5" width="11.5" height="11.5" rx="1.5"/><rect x="142.7" y="196.5" width="11.5" height="11.5" rx="1.5"/><rect x="160.7" y="196.5" width="11.5" height="11.5" rx="1.5"/><rect x="178.6" y="196.5" width="11.5" height="11.5" rx="1.5"/><rect x="232.3" y="196.5" width="11.5" height="11.5" rx="1.5"/><rect x="250.3" y="196.5" width="11.5" height="11.5" rx="1.5"/><rect x="268.2" y="196.5" width="11.5" height="11.5" rx="1.5"/><rect x="286.1" y="196.5" width="11.5" height="11.5" rx="1.5"/><rect x="339.9" y="196.5" width="11.5" height="11.5" rx="1.5"/><rect x="357.8" y="196.5" width="11.5" height="11.5" rx="1.5"/><rect x="375.7" y="196.5" width="11.5" height="11.5" rx="1.5"/><rect x="393.6" y="196.5" width="11.5" height="11.5" rx="1.5"/><rect x="411.5" y="196.5" width="11.5" height="11.5" rx="1.5"/><rect x="429.4" y="196.5" width="11.5" height="11.5" rx="1.5"/><rect x="447.4" y="196.5" width="11.5" height="11.5" rx="1.5"/><rect x="465.3" y="196.5" width="11.5" height="11.5" rx="1.5"/><rect x="35.2" y="214.4" width="11.5" height="11.5" rx="1.5"/><rect x="53.1" y="214.4" width="11.5" height="11.5" rx="1.5"/><rect x="71.1" y="214.4" width="11.5" height="11.5" rx="1.5"/><rect x="89.0" y="214.4" width="11.5" height="11.5" rx="1.5"/><rect x="106.9" y="214.4" width="11.5" height="11.5" rx="1.5"/><rect x="124.8" y="214.4" width="11.5" height="11.5" rx="1.5"/><rect x="142.7" y="214.4" width="11.5" height="11.5" rx="1.5"/><rect x="160.7" y="214.4" width="11.5" height="11.5" rx="1.5"/><rect x="178.6" y="214.4" width="11.5" height="11.5" rx="1.5"/><rect x="214.4" y="214.4" width="11.5" height="11.5" rx="1.5"/><rect x="232.3" y="214.4" width="11.5" height="11.5" rx="1.5"/><rect x="250.3" y="214.4" width="11.5" height="11.5" rx="1.5"/><rect x="268.2" y="214.4" width="11.5" height="11.5" rx="1.5"/><rect x="286.1" y="214.4" width="11.5" height="11.5" rx="1.5"/><rect x="304.0" y="214.4" width="11.5" height="11.5" rx="1.5"/><rect x="339.9" y="214.4" width="11.5" height="11.5" rx="1.5"/><rect x="357.8" y="214.4" width="11.5" height="11.5" rx="1.5"/><rect x="375.7" y="214.4" width="11.5" height="11.5" rx="1.5"/><rect x="393.6" y="214.4" width="11.5" height="11.5" rx="1.5"/><rect x="411.5" y="214.4" width="11.5" height="11.5" rx="1.5"/><rect x="429.4" y="214.4" width="11.5" height="11.5" rx="1.5"/><rect x="447.4" y="214.4" width="11.5" height="11.5" rx="1.5"/><rect x="465.3" y="214.4" width="11.5" height="11.5" rx="1.5"/><rect x="35.2" y="232.3" width="11.5" height="11.5" rx="1.5"/><rect x="53.1" y="232.3" width="11.5" height="11.5" rx="1.5"/><rect x="71.1" y="232.3" width="11.5" height="11.5" rx="1.5"/><rect x="89.0" y="232.3" width="11.5" height="11.5" rx="1.5"/><rect x="106.9" y="232.3" width="11.5" height="11.5" rx="1.5"/><rect x="124.8" y="232.3" width="11.5" height="11.5" rx="1.5"/><rect x="142.7" y="232.3" width="11.5" height="11.5" rx="1.5"/><rect x="160.7" y="232.3" width="11.5" height="11.5" rx="1.5"/><rect x="214.4" y="232.3" width="11.5" height="11.5" rx="1.5"/><rect x="232.3" y="232.3" width="11.5" height="11.5" rx="1.5"/><rect x="250.3" y="232.3" width="11.5" height="11.5" rx="1.5"/><rect x="268.2" y="232.3" width="11.5" height="11.5" rx="1.5"/><rect x="286.1" y="232.3" width="11.5" height="11.5" rx="1.5"/><rect x="375.7" y="232.3" width="11.5" height="11.5" rx="1.5"/><rect x="393.6" y="232.3" width="11.5" height="11.5" rx="1.5"/><rect x="411.5" y="232.3" width="11.5" height="11.5" rx="1.5"/><rect x="429.4" y="232.3" width="11.5" height="11.5" rx="1.5"/><rect x="447.4" y="232.3" width="11.5" height="11.5" rx="1.5"/><rect x="465.3" y="232.3" width="11.5" height="11.5" rx="1.5"/><rect x="35.2" y="250.3" width="11.5" height="11.5" rx="1.5"/><rect x="53.1" y="250.3" width="11.5" height="11.5" rx="1.5"/><rect x="71.1" y="250.3" width="11.5" height="11.5" rx="1.5"/><rect x="89.0" y="250.3" width="11.5" height="11.5" rx="1.5"/><rect x="106.9" y="250.3" width="11.5" height="11.5" rx="1.5"/><rect x="124.8" y="250.3" width="11.5" height="11.5" rx="1.5"/><rect x="142.7" y="250.3" width="11.5" height="11.5" rx="1.5"/><rect x="160.7" y="250.3" width="11.5" height="11.5" rx="1.5"/><rect x="196.5" y="250.3" width="11.5" height="11.5" rx="1.5"/><rect x="214.4" y="250.3" width="11.5" height="11.5" rx="1.5"/><rect x="232.3" y="250.3" width="11.5" height="11.5" rx="1.5"/><rect x="250.3" y="250.3" width="11.5" height="11.5" rx="1.5"/><rect x="268.2" y="250.3" width="11.5" height="11.5" rx="1.5"/><rect x="393.6" y="250.3" width="11.5" height="11.5" rx="1.5"/><rect x="411.5" y="250.3" width="11.5" height="11.5" rx="1.5"/><rect x="429.4" y="250.3" width="11.5" height="11.5" rx="1.5"/><rect x="447.4" y="250.3" width="11.5" height="11.5" rx="1.5"/><rect x="465.3" y="250.3" width="11.5" height="11.5" rx="1.5"/><rect x="35.2" y="268.2" width="11.5" height="11.5" rx="1.5"/><rect x="53.1" y="268.2" width="11.5" height="11.5" rx="1.5"/><rect x="71.1" y="268.2" width="11.5" height="11.5" rx="1.5"/><rect x="89.0" y="268.2" width="11.5" height="11.5" rx="1.5"/><rect x="106.9" y="268.2" width="11.5" height="11.5" rx="1.5"/><rect x="124.8" y="268.2" width="11.5" height="11.5" rx="1.5"/><rect x="232.3" y="268.2" width="11.5" height="11.5" rx="1.5"/><rect x="250.3" y="268.2" width="11.5" height="11.5" rx="1.5"/><rect x="411.5" y="268.2" width="11.5" height="11.5" rx="1.5"/><rect x="429.4" y="268.2" width="11.5" height="11.5" rx="1.5"/><rect x="447.4" y="268.2" width="11.5" height="11.5" rx="1.5"/><rect x="465.3" y="268.2" width="11.5" height="11.5" rx="1.5"/><rect x="35.2" y="286.1" width="11.5" height="11.5" rx="1.5"/><rect x="53.1" y="286.1" width="11.5" height="11.5" rx="1.5"/><rect x="71.1" y="286.1" width="11.5" height="11.5" rx="1.5"/><rect x="89.0" y="286.1" width="11.5" height="11.5" rx="1.5"/><rect x="106.9" y="286.1" width="11.5" height="11.5" rx="1.5"/><rect x="250.3" y="286.1" width="11.5" height="11.5" rx="1.5"/><rect x="411.5" y="286.1" width="11.5" height="11.5" rx="1.5"/><rect x="429.4" y="286.1" width="11.5" height="11.5" rx="1.5"/><rect x="447.4" y="286.1" width="11.5" height="11.5" rx="1.5"/><rect x="465.3" y="286.1" width="11.5" height="11.5" rx="1.5"/><rect x="35.2" y="304.0" width="11.5" height="11.5" rx="1.5"/><rect x="53.1" y="304.0" width="11.5" height="11.5" rx="1.5"/><rect x="71.1" y="304.0" width="11.5" height="11.5" rx="1.5"/><rect x="89.0" y="304.0" width="11.5" height="11.5" rx="1.5"/><rect x="411.5" y="304.0" width="11.5" height="11.5" rx="1.5"/><rect x="429.4" y="304.0" width="11.5" height="11.5" rx="1.5"/><rect x="447.4" y="304.0" width="11.5" height="11.5" rx="1.5"/><rect x="465.3" y="304.0" width="11.5" height="11.5" rx="1.5"/><rect x="53.1" y="321.9" width="11.5" height="11.5" rx="1.5"/><rect x="71.1" y="321.9" width="11.5" height="11.5" rx="1.5"/><rect x="89.0" y="321.9" width="11.5" height="11.5" rx="1.5"/><rect x="411.5" y="321.9" width="11.5" height="11.5" rx="1.5"/><rect x="429.4" y="321.9" width="11.5" height="11.5" rx="1.5"/><rect x="447.4" y="321.9" width="11.5" height="11.5" rx="1.5"/><rect x="53.1" y="339.9" width="11.5" height="11.5" rx="1.5"/><rect x="71.1" y="339.9" width="11.5" height="11.5" rx="1.5"/><rect x="89.0" y="339.9" width="11.5" height="11.5" rx="1.5"/><rect x="411.5" y="339.9" width="11.5" height="11.5" rx="1.5"/><rect x="429.4" y="339.9" width="11.5" height="11.5" rx="1.5"/><rect x="447.4" y="339.9" width="11.5" height="11.5" rx="1.5"/><rect x="71.1" y="357.8" width="11.5" height="11.5" rx="1.5"/><rect x="89.0" y="357.8" width="11.5" height="11.5" rx="1.5"/><rect x="268.2" y="357.8" width="11.5" height="11.5" rx="1.5"/><rect x="393.6" y="357.8" width="11.5" height="11.5" rx="1.5"/><rect x="411.5" y="357.8" width="11.5" height="11.5" rx="1.5"/><rect x="429.4" y="357.8" width="11.5" height="11.5" rx="1.5"/><rect x="71.1" y="375.7" width="11.5" height="11.5" rx="1.5"/><rect x="89.0" y="375.7" width="11.5" height="11.5" rx="1.5"/><rect x="106.9" y="375.7" width="11.5" height="11.5" rx="1.5"/><rect x="250.3" y="375.7" width="11.5" height="11.5" rx="1.5"/><rect x="268.2" y="375.7" width="11.5" height="11.5" rx="1.5"/><rect x="286.1" y="375.7" width="11.5" height="11.5" rx="1.5"/><rect x="375.7" y="375.7" width="11.5" height="11.5" rx="1.5"/><rect x="393.6" y="375.7" width="11.5" height="11.5" rx="1.5"/><rect x="411.5" y="375.7" width="11.5" height="11.5" rx="1.5"/><rect x="429.4" y="375.7" width="11.5" height="11.5" rx="1.5"/><rect x="89.0" y="393.6" width="11.5" height="11.5" rx="1.5"/><rect x="106.9" y="393.6" width="11.5" height="11.5" rx="1.5"/><rect x="124.8" y="393.6" width="11.5" height="11.5" rx="1.5"/><rect x="232.3" y="393.6" width="11.5" height="11.5" rx="1.5"/><rect x="250.3" y="393.6" width="11.5" height="11.5" rx="1.5"/><rect x="268.2" y="393.6" width="11.5" height="11.5" rx="1.5"/><rect x="286.1" y="393.6" width="11.5" height="11.5" rx="1.5"/><rect x="304.0" y="393.6" width="11.5" height="11.5" rx="1.5"/><rect x="321.9" y="393.6" width="11.5" height="11.5" rx="1.5"/><rect x="339.9" y="393.6" width="11.5" height="11.5" rx="1.5"/><rect x="357.8" y="393.6" width="11.5" height="11.5" rx="1.5"/><rect x="375.7" y="393.6" width="11.5" height="11.5" rx="1.5"/><rect x="393.6" y="393.6" width="11.5" height="11.5" rx="1.5"/><rect x="411.5" y="393.6" width="11.5" height="11.5" rx="1.5"/><rect x="106.9" y="411.5" width="11.5" height="11.5" rx="1.5"/><rect x="124.8" y="411.5" width="11.5" height="11.5" rx="1.5"/><rect x="142.7" y="411.5" width="11.5" height="11.5" rx="1.5"/><rect x="160.7" y="411.5" width="11.5" height="11.5" rx="1.5"/><rect x="178.6" y="411.5" width="11.5" height="11.5" rx="1.5"/><rect x="196.5" y="411.5" width="11.5" height="11.5" rx="1.5"/><rect x="214.4" y="411.5" width="11.5" height="11.5" rx="1.5"/><rect x="232.3" y="411.5" width="11.5" height="11.5" rx="1.5"/><rect x="250.3" y="411.5" width="11.5" height="11.5" rx="1.5"/><rect x="268.2" y="411.5" width="11.5" height="11.5" rx="1.5"/><rect x="286.1" y="411.5" width="11.5" height="11.5" rx="1.5"/><rect x="304.0" y="411.5" width="11.5" height="11.5" rx="1.5"/><rect x="321.9" y="411.5" width="11.5" height="11.5" rx="1.5"/><rect x="339.9" y="411.5" width="11.5" height="11.5" rx="1.5"/><rect x="357.8" y="411.5" width="11.5" height="11.5" rx="1.5"/><rect x="375.7" y="411.5" width="11.5" height="11.5" rx="1.5"/><rect x="393.6" y="411.5" width="11.5" height="11.5" rx="1.5"/><rect x="124.8" y="429.4" width="11.5" height="11.5" rx="1.5"/><rect x="142.7" y="429.4" width="11.5" height="11.5" rx="1.5"/><rect x="160.7" y="429.4" width="11.5" height="11.5" rx="1.5"/><rect x="178.6" y="429.4" width="11.5" height="11.5" rx="1.5"/><rect x="196.5" y="429.4" width="11.5" height="11.5" rx="1.5"/><rect x="214.4" y="429.4" width="11.5" height="11.5" rx="1.5"/><rect x="232.3" y="429.4" width="11.5" height="11.5" rx="1.5"/><rect x="250.3" y="429.4" width="11.5" height="11.5" rx="1.5"/><rect x="268.2" y="429.4" width="11.5" height="11.5" rx="1.5"/><rect x="286.1" y="429.4" width="11.5" height="11.5" rx="1.5"/><rect x="304.0" y="429.4" width="11.5" height="11.5" rx="1.5"/><rect x="321.9" y="429.4" width="11.5" height="11.5" rx="1.5"/><rect x="339.9" y="429.4" width="11.5" height="11.5" rx="1.5"/><rect x="357.8" y="429.4" width="11.5" height="11.5" rx="1.5"/><rect x="375.7" y="429.4" width="11.5" height="11.5" rx="1.5"/><rect x="160.7" y="447.4" width="11.5" height="11.5" rx="1.5"/><rect x="178.6" y="447.4" width="11.5" height="11.5" rx="1.5"/><rect x="196.5" y="447.4" width="11.5" height="11.5" rx="1.5"/><rect x="214.4" y="447.4" width="11.5" height="11.5" rx="1.5"/><rect x="232.3" y="447.4" width="11.5" height="11.5" rx="1.5"/><rect x="250.3" y="447.4" width="11.5" height="11.5" rx="1.5"/><rect x="268.2" y="447.4" width="11.5" height="11.5" rx="1.5"/><rect x="286.1" y="447.4" width="11.5" height="11.5" rx="1.5"/><rect x="304.0" y="447.4" width="11.5" height="11.5" rx="1.5"/><rect x="321.9" y="447.4" width="11.5" height="11.5" rx="1.5"/><rect x="339.9" y="447.4" width="11.5" height="11.5" rx="1.5"/><rect x="196.5" y="465.3" width="11.5" height="11.5" rx="1.5"/><rect x="214.4" y="465.3" width="11.5" height="11.5" rx="1.5"/><rect x="232.3" y="465.3" width="11.5" height="11.5" rx="1.5"/><rect x="250.3" y="465.3" width="11.5" height="11.5" rx="1.5"/><rect x="268.2" y="465.3" width="11.5" height="11.5" rx="1.5"/><rect x="286.1" y="465.3" width="11.5" height="11.5" rx="1.5"/><rect x="304.0" y="465.3" width="11.5" height="11.5" rx="1.5"/>
  </g>
  <!-- LEDs attenuees (tiges + reflets) -->
  <g fill="#B9B9B4" fill-opacity="0.55">
    <rect x="250.3" y="89.0" width="11.5" height="11.5" rx="1.5"/><rect x="250.3" y="106.9" width="11.5" height="11.5" rx="1.5"/><rect x="268.2" y="106.9" width="11.5" height="11.5" rx="1.5"/><rect x="232.3" y="124.8" width="11.5" height="11.5" rx="1.5"/><rect x="250.3" y="124.8" width="11.5" height="11.5" rx="1.5"/><rect x="268.2" y="124.8" width="11.5" height="11.5" rx="1.5"/><rect x="286.1" y="124.8" width="11.5" height="11.5" rx="1.5"/><rect x="232.3" y="142.7" width="11.5" height="11.5" rx="1.5"/><rect x="286.1" y="142.7" width="11.5" height="11.5" rx="1.5"/><rect x="214.4" y="160.7" width="11.5" height="11.5" rx="1.5"/><rect x="232.3" y="160.7" width="11.5" height="11.5" rx="1.5"/><rect x="286.1" y="160.7" width="11.5" height="11.5" rx="1.5"/><rect x="304.0" y="160.7" width="11.5" height="11.5" rx="1.5"/><rect x="214.4" y="178.6" width="11.5" height="11.5" rx="1.5"/><rect x="304.0" y="178.6" width="11.5" height="11.5" rx="1.5"/><rect x="196.5" y="196.5" width="11.5" height="11.5" rx="1.5"/><rect x="214.4" y="196.5" width="11.5" height="11.5" rx="1.5"/><rect x="304.0" y="196.5" width="11.5" height="11.5" rx="1.5"/><rect x="321.9" y="196.5" width="11.5" height="11.5" rx="1.5"/><rect x="196.5" y="214.4" width="11.5" height="11.5" rx="1.5"/><rect x="321.9" y="214.4" width="11.5" height="11.5" rx="1.5"/><rect x="178.6" y="232.3" width="11.5" height="11.5" rx="1.5"/><rect x="196.5" y="232.3" width="11.5" height="11.5" rx="1.5"/><rect x="178.6" y="250.3" width="11.5" height="11.5" rx="1.5"/><rect x="304.0" y="268.2" width="11.5" height="11.5" rx="1.5"/><rect x="321.9" y="268.2" width="11.5" height="11.5" rx="1.5"/><rect x="142.7" y="286.1" width="11.5" height="11.5" rx="1.5"/><rect x="160.7" y="286.1" width="11.5" height="11.5" rx="1.5"/><rect x="304.0" y="286.1" width="11.5" height="11.5" rx="1.5"/><rect x="142.7" y="304.0" width="11.5" height="11.5" rx="1.5"/>
  </g>
  <!-- halo des LEDs allumees -->
  <g fill="#FFFFFF" fill-opacity="0.55" filter="url(#glow)">
    <rect x="268.2" y="89.0" width="11.5" height="11.5" rx="1.5"/><rect x="286.1" y="89.0" width="11.5" height="11.5" rx="1.5"/><rect x="304.0" y="89.0" width="11.5" height="11.5" rx="1.5"/><rect x="286.1" y="106.9" width="11.5" height="11.5" rx="1.5"/><rect x="304.0" y="106.9" width="11.5" height="11.5" rx="1.5"/><rect x="321.9" y="106.9" width="11.5" height="11.5" rx="1.5"/><rect x="304.0" y="232.3" width="11.5" height="11.5" rx="1.5"/><rect x="321.9" y="232.3" width="11.5" height="11.5" rx="1.5"/><rect x="339.9" y="232.3" width="11.5" height="11.5" rx="1.5"/><rect x="357.8" y="232.3" width="11.5" height="11.5" rx="1.5"/><rect x="286.1" y="250.3" width="11.5" height="11.5" rx="1.5"/><rect x="304.0" y="250.3" width="11.5" height="11.5" rx="1.5"/><rect x="321.9" y="250.3" width="11.5" height="11.5" rx="1.5"/><rect x="339.9" y="250.3" width="11.5" height="11.5" rx="1.5"/><rect x="357.8" y="250.3" width="11.5" height="11.5" rx="1.5"/><rect x="375.7" y="250.3" width="11.5" height="11.5" rx="1.5"/><rect x="142.7" y="268.2" width="11.5" height="11.5" rx="1.5"/><rect x="160.7" y="268.2" width="11.5" height="11.5" rx="1.5"/><rect x="178.6" y="268.2" width="11.5" height="11.5" rx="1.5"/><rect x="196.5" y="268.2" width="11.5" height="11.5" rx="1.5"/><rect x="214.4" y="268.2" width="11.5" height="11.5" rx="1.5"/><rect x="268.2" y="268.2" width="11.5" height="11.5" rx="1.5"/><rect x="286.1" y="268.2" width="11.5" height="11.5" rx="1.5"/><rect x="339.9" y="268.2" width="11.5" height="11.5" rx="1.5"/><rect x="357.8" y="268.2" width="11.5" height="11.5" rx="1.5"/><rect x="375.7" y="268.2" width="11.5" height="11.5" rx="1.5"/><rect x="393.6" y="268.2" width="11.5" height="11.5" rx="1.5"/><rect x="124.8" y="286.1" width="11.5" height="11.5" rx="1.5"/><rect x="178.6" y="286.1" width="11.5" height="11.5" rx="1.5"/><rect x="196.5" y="286.1" width="11.5" height="11.5" rx="1.5"/><rect x="214.4" y="286.1" width="11.5" height="11.5" rx="1.5"/><rect x="232.3" y="286.1" width="11.5" height="11.5" rx="1.5"/><rect x="268.2" y="286.1" width="11.5" height="11.5" rx="1.5"/><rect x="286.1" y="286.1" width="11.5" height="11.5" rx="1.5"/><rect x="321.9" y="286.1" width="11.5" height="11.5" rx="1.5"/><rect x="339.9" y="286.1" width="11.5" height="11.5" rx="1.5"/><rect x="357.8" y="286.1" width="11.5" height="11.5" rx="1.5"/><rect x="375.7" y="286.1" width="11.5" height="11.5" rx="1.5"/><rect x="393.6" y="286.1" width="11.5" height="11.5" rx="1.5"/><rect x="106.9" y="304.0" width="11.5" height="11.5" rx="1.5"/><rect x="124.8" y="304.0" width="11.5" height="11.5" rx="1.5"/><rect x="160.7" y="304.0" width="11.5" height="11.5" rx="1.5"/><rect x="178.6" y="304.0" width="11.5" height="11.5" rx="1.5"/><rect x="196.5" y="304.0" width="11.5" height="11.5" rx="1.5"/><rect x="214.4" y="304.0" width="11.5" height="11.5" rx="1.5"/><rect x="232.3" y="304.0" width="11.5" height="11.5" rx="1.5"/><rect x="250.3" y="304.0" width="11.5" height="11.5" rx="1.5"/><rect x="268.2" y="304.0" width="11.5" height="11.5" rx="1.5"/><rect x="286.1" y="304.0" width="11.5" height="11.5" rx="1.5"/><rect x="304.0" y="304.0" width="11.5" height="11.5" rx="1.5"/><rect x="321.9" y="304.0" width="11.5" height="11.5" rx="1.5"/><rect x="339.9" y="304.0" width="11.5" height="11.5" rx="1.5"/><rect x="357.8" y="304.0" width="11.5" height="11.5" rx="1.5"/><rect x="375.7" y="304.0" width="11.5" height="11.5" rx="1.5"/><rect x="393.6" y="304.0" width="11.5" height="11.5" rx="1.5"/><rect x="106.9" y="321.9" width="11.5" height="11.5" rx="1.5"/><rect x="124.8" y="321.9" width="11.5" height="11.5" rx="1.5"/><rect x="142.7" y="321.9" width="11.5" height="11.5" rx="1.5"/><rect x="160.7" y="321.9" width="11.5" height="11.5" rx="1.5"/><rect x="178.6" y="321.9" width="11.5" height="11.5" rx="1.5"/><rect x="196.5" y="321.9" width="11.5" height="11.5" rx="1.5"/><rect x="214.4" y="321.9" width="11.5" height="11.5" rx="1.5"/><rect x="232.3" y="321.9" width="11.5" height="11.5" rx="1.5"/><rect x="250.3" y="321.9" width="11.5" height="11.5" rx="1.5"/><rect x="268.2" y="321.9" width="11.5" height="11.5" rx="1.5"/><rect x="286.1" y="321.9" width="11.5" height="11.5" rx="1.5"/><rect x="304.0" y="321.9" width="11.5" height="11.5" rx="1.5"/><rect x="321.9" y="321.9" width="11.5" height="11.5" rx="1.5"/><rect x="339.9" y="321.9" width="11.5" height="11.5" rx="1.5"/><rect x="357.8" y="321.9" width="11.5" height="11.5" rx="1.5"/><rect x="375.7" y="321.9" width="11.5" height="11.5" rx="1.5"/><rect x="393.6" y="321.9" width="11.5" height="11.5" rx="1.5"/><rect x="106.9" y="339.9" width="11.5" height="11.5" rx="1.5"/><rect x="124.8" y="339.9" width="11.5" height="11.5" rx="1.5"/><rect x="142.7" y="339.9" width="11.5" height="11.5" rx="1.5"/><rect x="160.7" y="339.9" width="11.5" height="11.5" rx="1.5"/><rect x="178.6" y="339.9" width="11.5" height="11.5" rx="1.5"/><rect x="196.5" y="339.9" width="11.5" height="11.5" rx="1.5"/><rect x="214.4" y="339.9" width="11.5" height="11.5" rx="1.5"/><rect x="232.3" y="339.9" width="11.5" height="11.5" rx="1.5"/><rect x="250.3" y="339.9" width="11.5" height="11.5" rx="1.5"/><rect x="268.2" y="339.9" width="11.5" height="11.5" rx="1.5"/><rect x="286.1" y="339.9" width="11.5" height="11.5" rx="1.5"/><rect x="304.0" y="339.9" width="11.5" height="11.5" rx="1.5"/><rect x="321.9" y="339.9" width="11.5" height="11.5" rx="1.5"/><rect x="339.9" y="339.9" width="11.5" height="11.5" rx="1.5"/><rect x="357.8" y="339.9" width="11.5" height="11.5" rx="1.5"/><rect x="375.7" y="339.9" width="11.5" height="11.5" rx="1.5"/><rect x="393.6" y="339.9" width="11.5" height="11.5" rx="1.5"/><rect x="106.9" y="357.8" width="11.5" height="11.5" rx="1.5"/><rect x="124.8" y="357.8" width="11.5" height="11.5" rx="1.5"/><rect x="142.7" y="357.8" width="11.5" height="11.5" rx="1.5"/><rect x="160.7" y="357.8" width="11.5" height="11.5" rx="1.5"/><rect x="178.6" y="357.8" width="11.5" height="11.5" rx="1.5"/><rect x="196.5" y="357.8" width="11.5" height="11.5" rx="1.5"/><rect x="214.4" y="357.8" width="11.5" height="11.5" rx="1.5"/><rect x="232.3" y="357.8" width="11.5" height="11.5" rx="1.5"/><rect x="250.3" y="357.8" width="11.5" height="11.5" rx="1.5"/><rect x="286.1" y="357.8" width="11.5" height="11.5" rx="1.5"/><rect x="304.0" y="357.8" width="11.5" height="11.5" rx="1.5"/><rect x="321.9" y="357.8" width="11.5" height="11.5" rx="1.5"/><rect x="339.9" y="357.8" width="11.5" height="11.5" rx="1.5"/><rect x="357.8" y="357.8" width="11.5" height="11.5" rx="1.5"/><rect x="375.7" y="357.8" width="11.5" height="11.5" rx="1.5"/><rect x="124.8" y="375.7" width="11.5" height="11.5" rx="1.5"/><rect x="142.7" y="375.7" width="11.5" height="11.5" rx="1.5"/><rect x="160.7" y="375.7" width="11.5" height="11.5" rx="1.5"/><rect x="178.6" y="375.7" width="11.5" height="11.5" rx="1.5"/><rect x="196.5" y="375.7" width="11.5" height="11.5" rx="1.5"/><rect x="214.4" y="375.7" width="11.5" height="11.5" rx="1.5"/><rect x="232.3" y="375.7" width="11.5" height="11.5" rx="1.5"/><rect x="304.0" y="375.7" width="11.5" height="11.5" rx="1.5"/><rect x="321.9" y="375.7" width="11.5" height="11.5" rx="1.5"/><rect x="339.9" y="375.7" width="11.5" height="11.5" rx="1.5"/><rect x="357.8" y="375.7" width="11.5" height="11.5" rx="1.5"/><rect x="142.7" y="393.6" width="11.5" height="11.5" rx="1.5"/><rect x="160.7" y="393.6" width="11.5" height="11.5" rx="1.5"/><rect x="178.6" y="393.6" width="11.5" height="11.5" rx="1.5"/><rect x="196.5" y="393.6" width="11.5" height="11.5" rx="1.5"/><rect x="214.4" y="393.6" width="11.5" height="11.5" rx="1.5"/>
  </g>
  <!-- LEDs allumees -->
  <g fill="#F8F8F4">
    <rect x="268.2" y="89.0" width="11.5" height="11.5" rx="1.5"/><rect x="286.1" y="89.0" width="11.5" height="11.5" rx="1.5"/><rect x="304.0" y="89.0" width="11.5" height="11.5" rx="1.5"/><rect x="286.1" y="106.9" width="11.5" height="11.5" rx="1.5"/><rect x="304.0" y="106.9" width="11.5" height="11.5" rx="1.5"/><rect x="321.9" y="106.9" width="11.5" height="11.5" rx="1.5"/><rect x="304.0" y="232.3" width="11.5" height="11.5" rx="1.5"/><rect x="321.9" y="232.3" width="11.5" height="11.5" rx="1.5"/><rect x="339.9" y="232.3" width="11.5" height="11.5" rx="1.5"/><rect x="357.8" y="232.3" width="11.5" height="11.5" rx="1.5"/><rect x="286.1" y="250.3" width="11.5" height="11.5" rx="1.5"/><rect x="304.0" y="250.3" width="11.5" height="11.5" rx="1.5"/><rect x="321.9" y="250.3" width="11.5" height="11.5" rx="1.5"/><rect x="339.9" y="250.3" width="11.5" height="11.5" rx="1.5"/><rect x="357.8" y="250.3" width="11.5" height="11.5" rx="1.5"/><rect x="375.7" y="250.3" width="11.5" height="11.5" rx="1.5"/><rect x="142.7" y="268.2" width="11.5" height="11.5" rx="1.5"/><rect x="160.7" y="268.2" width="11.5" height="11.5" rx="1.5"/><rect x="178.6" y="268.2" width="11.5" height="11.5" rx="1.5"/><rect x="196.5" y="268.2" width="11.5" height="11.5" rx="1.5"/><rect x="214.4" y="268.2" width="11.5" height="11.5" rx="1.5"/><rect x="268.2" y="268.2" width="11.5" height="11.5" rx="1.5"/><rect x="286.1" y="268.2" width="11.5" height="11.5" rx="1.5"/><rect x="339.9" y="268.2" width="11.5" height="11.5" rx="1.5"/><rect x="357.8" y="268.2" width="11.5" height="11.5" rx="1.5"/><rect x="375.7" y="268.2" width="11.5" height="11.5" rx="1.5"/><rect x="393.6" y="268.2" width="11.5" height="11.5" rx="1.5"/><rect x="124.8" y="286.1" width="11.5" height="11.5" rx="1.5"/><rect x="178.6" y="286.1" width="11.5" height="11.5" rx="1.5"/><rect x="196.5" y="286.1" width="11.5" height="11.5" rx="1.5"/><rect x="214.4" y="286.1" width="11.5" height="11.5" rx="1.5"/><rect x="232.3" y="286.1" width="11.5" height="11.5" rx="1.5"/><rect x="268.2" y="286.1" width="11.5" height="11.5" rx="1.5"/><rect x="286.1" y="286.1" width="11.5" height="11.5" rx="1.5"/><rect x="321.9" y="286.1" width="11.5" height="11.5" rx="1.5"/><rect x="339.9" y="286.1" width="11.5" height="11.5" rx="1.5"/><rect x="357.8" y="286.1" width="11.5" height="11.5" rx="1.5"/><rect x="375.7" y="286.1" width="11.5" height="11.5" rx="1.5"/><rect x="393.6" y="286.1" width="11.5" height="11.5" rx="1.5"/><rect x="106.9" y="304.0" width="11.5" height="11.5" rx="1.5"/><rect x="124.8" y="304.0" width="11.5" height="11.5" rx="1.5"/><rect x="160.7" y="304.0" width="11.5" height="11.5" rx="1.5"/><rect x="178.6" y="304.0" width="11.5" height="11.5" rx="1.5"/><rect x="196.5" y="304.0" width="11.5" height="11.5" rx="1.5"/><rect x="214.4" y="304.0" width="11.5" height="11.5" rx="1.5"/><rect x="232.3" y="304.0" width="11.5" height="11.5" rx="1.5"/><rect x="250.3" y="304.0" width="11.5" height="11.5" rx="1.5"/><rect x="268.2" y="304.0" width="11.5" height="11.5" rx="1.5"/><rect x="286.1" y="304.0" width="11.5" height="11.5" rx="1.5"/><rect x="304.0" y="304.0" width="11.5" height="11.5" rx="1.5"/><rect x="321.9" y="304.0" width="11.5" height="11.5" rx="1.5"/><rect x="339.9" y="304.0" width="11.5" height="11.5" rx="1.5"/><rect x="357.8" y="304.0" width="11.5" height="11.5" rx="1.5"/><rect x="375.7" y="304.0" width="11.5" height="11.5" rx="1.5"/><rect x="393.6" y="304.0" width="11.5" height="11.5" rx="1.5"/><rect x="106.9" y="321.9" width="11.5" height="11.5" rx="1.5"/><rect x="124.8" y="321.9" width="11.5" height="11.5" rx="1.5"/><rect x="142.7" y="321.9" width="11.5" height="11.5" rx="1.5"/><rect x="160.7" y="321.9" width="11.5" height="11.5" rx="1.5"/><rect x="178.6" y="321.9" width="11.5" height="11.5" rx="1.5"/><rect x="196.5" y="321.9" width="11.5" height="11.5" rx="1.5"/><rect x="214.4" y="321.9" width="11.5" height="11.5" rx="1.5"/><rect x="232.3" y="321.9" width="11.5" height="11.5" rx="1.5"/><rect x="250.3" y="321.9" width="11.5" height="11.5" rx="1.5"/><rect x="268.2" y="321.9" width="11.5" height="11.5" rx="1.5"/><rect x="286.1" y="321.9" width="11.5" height="11.5" rx="1.5"/><rect x="304.0" y="321.9" width="11.5" height="11.5" rx="1.5"/><rect x="321.9" y="321.9" width="11.5" height="11.5" rx="1.5"/><rect x="339.9" y="321.9" width="11.5" height="11.5" rx="1.5"/><rect x="357.8" y="321.9" width="11.5" height="11.5" rx="1.5"/><rect x="375.7" y="321.9" width="11.5" height="11.5" rx="1.5"/><rect x="393.6" y="321.9" width="11.5" height="11.5" rx="1.5"/><rect x="106.9" y="339.9" width="11.5" height="11.5" rx="1.5"/><rect x="124.8" y="339.9" width="11.5" height="11.5" rx="1.5"/><rect x="142.7" y="339.9" width="11.5" height="11.5" rx="1.5"/><rect x="160.7" y="339.9" width="11.5" height="11.5" rx="1.5"/><rect x="178.6" y="339.9" width="11.5" height="11.5" rx="1.5"/><rect x="196.5" y="339.9" width="11.5" height="11.5" rx="1.5"/><rect x="214.4" y="339.9" width="11.5" height="11.5" rx="1.5"/><rect x="232.3" y="339.9" width="11.5" height="11.5" rx="1.5"/><rect x="250.3" y="339.9" width="11.5" height="11.5" rx="1.5"/><rect x="268.2" y="339.9" width="11.5" height="11.5" rx="1.5"/><rect x="286.1" y="339.9" width="11.5" height="11.5" rx="1.5"/><rect x="304.0" y="339.9" width="11.5" height="11.5" rx="1.5"/><rect x="321.9" y="339.9" width="11.5" height="11.5" rx="1.5"/><rect x="339.9" y="339.9" width="11.5" height="11.5" rx="1.5"/><rect x="357.8" y="339.9" width="11.5" height="11.5" rx="1.5"/><rect x="375.7" y="339.9" width="11.5" height="11.5" rx="1.5"/><rect x="393.6" y="339.9" width="11.5" height="11.5" rx="1.5"/><rect x="106.9" y="357.8" width="11.5" height="11.5" rx="1.5"/><rect x="124.8" y="357.8" width="11.5" height="11.5" rx="1.5"/><rect x="142.7" y="357.8" width="11.5" height="11.5" rx="1.5"/><rect x="160.7" y="357.8" width="11.5" height="11.5" rx="1.5"/><rect x="178.6" y="357.8" width="11.5" height="11.5" rx="1.5"/><rect x="196.5" y="357.8" width="11.5" height="11.5" rx="1.5"/><rect x="214.4" y="357.8" width="11.5" height="11.5" rx="1.5"/><rect x="232.3" y="357.8" width="11.5" height="11.5" rx="1.5"/><rect x="250.3" y="357.8" width="11.5" height="11.5" rx="1.5"/><rect x="286.1" y="357.8" width="11.5" height="11.5" rx="1.5"/><rect x="304.0" y="357.8" width="11.5" height="11.5" rx="1.5"/><rect x="321.9" y="357.8" width="11.5" height="11.5" rx="1.5"/><rect x="339.9" y="357.8" width="11.5" height="11.5" rx="1.5"/><rect x="357.8" y="357.8" width="11.5" height="11.5" rx="1.5"/><rect x="375.7" y="357.8" width="11.5" height="11.5" rx="1.5"/><rect x="124.8" y="375.7" width="11.5" height="11.5" rx="1.5"/><rect x="142.7" y="375.7" width="11.5" height="11.5" rx="1.5"/><rect x="160.7" y="375.7" width="11.5" height="11.5" rx="1.5"/><rect x="178.6" y="375.7" width="11.5" height="11.5" rx="1.5"/><rect x="196.5" y="375.7" width="11.5" height="11.5" rx="1.5"/><rect x="214.4" y="375.7" width="11.5" height="11.5" rx="1.5"/><rect x="232.3" y="375.7" width="11.5" height="11.5" rx="1.5"/><rect x="304.0" y="375.7" width="11.5" height="11.5" rx="1.5"/><rect x="321.9" y="375.7" width="11.5" height="11.5" rx="1.5"/><rect x="339.9" y="375.7" width="11.5" height="11.5" rx="1.5"/><rect x="357.8" y="375.7" width="11.5" height="11.5" rx="1.5"/><rect x="142.7" y="393.6" width="11.5" height="11.5" rx="1.5"/><rect x="160.7" y="393.6" width="11.5" height="11.5" rx="1.5"/><rect x="178.6" y="393.6" width="11.5" height="11.5" rx="1.5"/><rect x="196.5" y="393.6" width="11.5" height="11.5" rx="1.5"/><rect x="214.4" y="393.6" width="11.5" height="11.5" rx="1.5"/>
  </g>
</svg>
